<?xml version="1.0" standalone="no"?>
<!DOCTYPE svg PUBLIC "-//W3C//DTD SVG 20010904//EN"
 "http://www.w3.org/TR/2001/REC-SVG-20010904/DTD/svg10.dtd">
<svg version="1.0" xmlns="http://www.w3.org/2000/svg"
 width="3264.000000pt" height="1586.000000pt" viewBox="0 0 3264.000000 1586.000000"
 preserveAspectRatio="xMidYMid meet">

<defs>
  <linearGradient id="goldGradient" x1="0%" y1="0%" x2="100%" y2="100%">
    <stop offset="0%" style="stop-color:#d4af37;stop-opacity:1" />
    <stop offset="25%" style="stop-color:#ffd700;stop-opacity:1" />
    <stop offset="50%" style="stop-color:#ffed4e;stop-opacity:1" />
    <stop offset="75%" style="stop-color:#d4af37;stop-opacity:1" />
    <stop offset="100%" style="stop-color:#b8860b;stop-opacity:1" />
  </linearGradient>
  <animateTransform
    attributeName="gradientTransform"
    attributeType="XML"
    type="translate"
    values="0,0; 100,0; 0,0"
    dur="3s"
    repeatCount="indefinite"/>
</defs>

<g transform="translate(0.000000,1586.000000) scale(0.100000,-0.100000)"
fill="url(#goldGradient)" stroke="none">
<path d="M4703 12003 c-9 -16 -33 -53 -53 -84 -41 -63 -56 -98 -65 -151 -5
-34 -10 -39 -48 -49 -23 -6 -56 -19 -73 -30 -17 -10 -38 -19 -46 -19 -28 0
-68 -47 -68 -80 0 -20 5 -30 15 -30 10 0 15 10 15 30 0 38 20 40 21 3 1 -35
27 -81 60 -105 24 -18 29 -18 61 -5 20 8 44 29 54 46 10 17 22 31 25 31 28 0
68 -84 52 -109 -20 -31 -172 -17 -428 39 -49 11 -118 23 -151 26 -58 6 -67 4
-148 -35 -47 -22 -89 -41 -94 -41 -4 0 -34 -22 -66 -49 -32 -28 -72 -56 -89
-65 -28 -13 -33 -12 -68 10 -75 47 -156 55 -193 19 -17 -18 -47 -20 -63 -4
-20 20 -88 14 -123 -11 -24 -17 -30 -28 -28 -49 3 -27 14 -30 56 -17 47 15 21
-27 -78 -125 -55 -55 -104 -108 -109 -117 -9 -15 -12 -15 -42 7 l-32 24 -19
-23 c-40 -50 -12 -319 49 -475 39 -99 39 -114 -4 -230 -24 -66 -31 -75 -52
-75 -24 0 -71 -37 -71 -56 0 -8 29 -49 65 -92 36 -42 65 -84 65 -93 0 -10 -17
-23 -45 -34 -48 -18 -75 -15 -75 8 0 8 -11 26 -25 41 -61 65 -195 -8 -195
-107 0 -11 -18 -40 -41 -64 -49 -53 -97 -154 -132 -275 -14 -49 -29 -93 -32
-98 -14 -23 -25 5 -25 65 0 35 -4 66 -8 69 -4 2 -24 -3 -44 -12 -58 -27 -116
-102 -165 -215 -62 -143 -61 -143 -133 -106 -108 55 -199 33 -263 -64 -45 -68
-61 -130 -55 -215 6 -75 23 -116 79 -182 38 -47 39 -49 70 -235 12 -69 67
-169 96 -172 11 -2 34 17 63 53 83 103 123 112 83 19 -14 -33 -45 -116 -70
-185 -94 -264 -101 -297 -123 -597 -10 -145 -29 -256 -75 -441 -32 -132 -32
-140 3 -148 61 -13 117 -39 148 -68 37 -34 44 -63 64 -256 23 -209 86 -375
213 -555 73 -103 325 -364 396 -410 20 -12 54 -39 76 -60 22 -20 54 -43 70
-52 17 -8 41 -26 55 -38 14 -13 66 -49 116 -82 51 -32 112 -71 135 -86 75 -48
212 -129 263 -154 205 -102 276 -189 296 -365 22 -181 39 -206 160 -233 103
-23 168 -29 184 -16 17 14 26 4 26 -31 0 -16 7 -61 16 -100 14 -62 23 -77 68
-123 59 -61 85 -71 235 -86 57 -5 112 -14 123 -20 52 -28 99 -132 129 -284 8
-45 19 -67 44 -92 18 -18 38 -33 45 -33 19 0 78 65 83 91 3 13 10 53 17 89 23
125 65 191 144 224 18 7 72 19 122 26 49 7 110 21 136 32 54 23 115 84 124
125 3 16 10 41 15 57 5 16 9 47 9 70 0 23 5 48 10 56 8 13 13 13 39 -3 38 -22
45 -22 143 9 151 47 179 82 188 234 7 104 8 110 47 171 36 57 50 69 159 135
65 41 122 74 127 74 8 0 98 57 236 149 46 31 102 67 125 81 23 14 60 39 82 57
21 18 71 56 109 85 151 112 372 318 440 408 11 15 46 61 77 102 82 109 161
267 186 374 27 115 42 210 42 262 0 73 21 139 54 171 25 24 45 32 96 39 47 7
68 15 82 32 25 31 23 44 -18 110 -28 46 -38 74 -44 132 -30 263 -44 367 -76
558 -37 228 -63 331 -126 499 -21 58 -37 109 -35 114 1 5 35 -19 75 -52 40
-34 79 -61 87 -61 41 0 67 63 86 205 10 80 17 97 55 155 53 78 77 165 78 275
0 91 -22 170 -57 203 -27 24 -91 52 -122 52 -13 0 -56 -11 -97 -25 -40 -14
-79 -25 -85 -25 -7 0 -43 61 -80 136 -52 105 -76 144 -108 169 -43 36 -89 58
-99 48 -3 -4 -6 -32 -6 -63 0 -33 -6 -64 -14 -76 -18 -23 -18 -22 -41 96 -21
113 -75 219 -156 306 -10 11 -19 30 -19 43 0 60 -70 131 -129 131 -37 0 -81
-31 -81 -57 0 -6 -7 -16 -15 -23 -13 -11 -23 -10 -55 0 -63 21 -66 32 -29 87
18 26 50 67 71 91 21 23 36 47 33 52 -4 6 -23 19 -44 30 -38 19 -101 82 -101
101 0 6 -23 35 -51 64 -56 59 -55 52 -24 155 57 188 83 417 55 471 -14 25 -46
24 -62 -1 -17 -27 -21 -26 -51 18 -14 20 -64 76 -111 124 -52 52 -86 95 -86
107 0 29 24 26 38 -4 15 -32 30 -32 38 1 10 37 -23 78 -67 82 -19 2 -51 -2
-72 -9 -35 -12 -43 -11 -81 11 -54 29 -96 24 -167 -19 -27 -17 -55 -31 -62
-31 -6 0 -46 28 -87 61 -78 63 -157 109 -186 109 -10 0 -26 8 -37 18 -43 39
-331 0 -561 -76 l-79 -26 -28 32 c-28 31 -37 71 -23 106 11 30 55 18 94 -24
57 -62 105 -53 134 25 33 86 0 154 -88 176 -53 13 -53 14 -81 94 -24 70 -121
225 -141 225 -7 0 -21 -12 -31 -27z m-31 -205 c-2 -51 -8 -97 -13 -102 -5 -6
-17 -2 -29 9 -25 23 -27 85 -3 123 15 25 44 62 48 62 0 0 -1 -42 -3 -92z m163
29 c29 -50 32 -83 9 -115 -28 -40 -39 -21 -41 71 -1 48 0 87 2 87 2 0 16 -20
30 -43z m-233 -149 c45 -13 88 -59 88 -94 0 -30 -6 -30 -52 1 -48 32 -64 32
-71 -3 -8 -38 -44 -82 -68 -82 -26 0 -69 43 -69 69 0 11 7 38 16 60 23 57 75
73 156 49z m381 0 c47 -25 64 -63 53 -122 -5 -25 -14 -37 -37 -46 -27 -11 -34
-11 -57 7 -19 14 -28 31 -30 55 -2 28 -9 37 -35 49 -40 17 -47 46 -15 58 33
14 95 13 121 -1z m-156 -63 c5 -16 -22 -55 -39 -55 -12 0 -10 27 4 50 15 24
27 25 35 5z m-662 -164 c3 -5 -7 -19 -21 -30 -31 -24 -129 -31 -122 -8 10 31
127 63 143 38z m1264 -19 c41 -30 39 -44 -5 -37 -89 15 -131 36 -117 58 9 14
95 -1 122 -21z m-1472 -26 c-6 -39 -55 -118 -68 -110 -15 9 -10 68 7 94 38 57
69 65 61 16z m373 20 c-30 -38 -150 -58 -150 -26 0 17 63 38 114 39 41 1 47
-1 36 -13z m920 2 c46 -15 51 -41 8 -46 -26 -3 -101 28 -113 48 -9 14 57 13
105 -2z m314 -18 c27 -32 42 -89 32 -116 -9 -23 -27 -5 -60 61 -40 79 -22 114
28 55z m-1089 -20 c3 -5 -5 -16 -19 -25 -27 -18 -97 -17 -103 2 -8 23 108 45
122 23z m612 -2 c18 -7 32 -17 30 -23 -6 -14 -92 -11 -111 4 -35 29 18 42 81
19z m-314 -67 l28 -28 -27 -17 c-50 -34 -100 3 -69 50 20 31 34 30 68 -5z
m-1196 0 c17 -11 34 -29 38 -41 8 -26 -16 -65 -44 -73 -19 -5 -21 -1 -21 37 0
59 -25 81 -81 72 -37 -6 -41 -5 -29 9 18 22 97 20 137 -4z m2463 4 c17 -21 7
-29 -18 -16 -12 6 -30 11 -41 11 -26 0 -61 -46 -61 -81 0 -35 -22 -38 -44 -7
-22 32 -20 55 9 83 20 21 34 25 83 25 41 0 63 -5 72 -15z m-1590 -35 c138 -25
145 -28 148 -51 4 -41 -64 -319 -83 -338 -18 -18 -45 106 -45 207 0 44 -4 62
-13 62 -27 0 -106 -60 -148 -113 -53 -66 -79 -83 -141 -92 -40 -6 -48 -4 -57
13 -6 12 -11 29 -11 40 0 29 -37 70 -70 77 -25 6 -30 11 -30 36 0 70 83 174
147 184 21 4 42 8 48 9 19 5 112 -7 255 -34z m875 29 c64 -17 121 -84 145
-170 10 -32 5 -40 -41 -60 -29 -14 -38 -26 -51 -65 l-16 -49 -68 3 c-83 3
-109 19 -125 72 -12 40 -44 72 -106 104 -57 29 -63 24 -63 -55 0 -81 -28 -211
-44 -206 -6 2 -16 26 -22 53 -52 222 -65 285 -62 301 2 14 17 20 58 25 30 4
105 18 165 32 124 27 173 31 230 15z m-1975 -19 c30 -30 26 -88 -9 -138 -23
-31 -35 -39 -51 -35 -30 8 -86 -49 -109 -111 -10 -28 -28 -94 -41 -146 -25
-107 -43 -138 -54 -95 -6 23 -9 25 -23 14 -12 -11 -14 -26 -9 -74 3 -33 9 -70
12 -82 12 -42 -16 -24 -39 25 -19 41 -22 64 -22 174 0 69 4 130 8 135 12 11
37 -26 37 -54 0 -37 16 -27 29 19 16 53 48 102 133 208 40 50 73 102 79 125
17 64 25 69 59 35z m2816 -7 c12 -48 33 -82 99 -157 65 -75 117 -165 130 -224
5 -27 9 -31 21 -21 8 6 14 19 14 28 0 9 5 23 10 31 19 29 30 -11 29 -110 0
-113 -20 -205 -50 -234 l-22 -21 7 25 c13 53 18 167 8 185 -9 17 -11 15 -27
-15 l-18 -34 -12 34 c-7 19 -18 62 -25 95 -20 97 -58 189 -95 230 -27 29 -38
35 -48 27 -30 -25 -87 53 -87 117 0 30 29 71 50 71 5 0 13 -12 16 -27z m-2126
2 c0 -3 -16 -25 -35 -51 -19 -25 -35 -43 -35 -39 0 15 32 80 43 87 14 9 27 10
27 3z m1436 -30 c15 -20 24 -39 20 -43 -7 -6 -36 24 -57 61 -18 32 9 18 37
-18z m-1679 -37 c58 -44 73 -65 73 -97 0 -28 -5 -27 -39 11 -57 64 -47 13 14
-71 46 -63 20 -72 -38 -13 -56 58 -111 212 -75 212 6 0 35 -19 65 -42z m1953
4 c0 -59 -30 -119 -86 -172 -30 -29 -57 -50 -60 -47 -5 5 19 54 58 115 30 49
11 53 -28 7 -24 -29 -34 -35 -34 -22 0 41 30 87 76 117 60 38 74 38 74 2z
m-1036 -18 c6 -10 12 -21 14 -23 1 -3 16 9 33 25 25 24 31 26 39 14 15 -23 12
-46 -9 -71 -18 -22 -20 -22 -26 -6 -9 21 -53 23 -61 2 -6 -14 -8 -13 -20 2
-14 19 -19 65 -7 77 10 10 25 2 37 -20z m823 4 c-3 -8 -6 -5 -6 6 -1 11 2 17
5 13 3 -3 4 -12 1 -19z m-1620 -75 c-3 -10 -5 -4 -5 12 0 17 2 24 5 18 2 -7 2
-21 0 -30z m763 -48 c17 -28 20 -43 15 -80 -8 -50 -24 -58 -47 -22 -28 41 -40
94 -28 117 16 29 35 25 60 -15z m171 14 c14 -27 -2 -83 -36 -125 -26 -32 -43
-28 -25 5 9 17 8 22 -5 27 -22 9 -19 34 10 77 30 43 40 46 56 16z m-1331 -20
c0 -12 5 -39 12 -60 6 -22 9 -41 7 -43 -2 -3 -28 -8 -57 -12 l-52 -7 0 61 c0
61 0 62 33 71 49 14 57 13 57 -10z m420 -20 c0 -16 4 -37 9 -47 26 -52 32 -71
29 -93 -3 -19 -7 -14 -21 27 -21 62 -37 155 -25 148 4 -3 8 -18 8 -35z m2061
29 c19 -6 36 -15 39 -19 3 -5 3 -32 0 -61 -4 -40 -9 -52 -20 -49 -8 2 -32 6
-53 9 -38 5 -39 6 -32 36 4 17 9 43 10 59 1 15 3 29 4 32 2 8 15 6 52 -7z
m-464 -20 c-3 -8 -6 -5 -6 6 -1 11 2 17 5 13 3 -3 4 -12 1 -19z m-1941 -2 c3
-8 4 -31 2 -52 l-3 -39 -19 37 c-19 36 -17 68 4 68 6 0 13 -6 16 -14z m2230
-91 c-18 -50 -20 -20 -3 54 11 51 12 53 15 21 1 -19 -4 -53 -12 -75z m84 85
c0 -21 -26 -80 -35 -80 -3 0 -5 23 -5 50 0 43 3 50 20 50 13 0 20 -7 20 -20z
m-2516 -16 c10 -27 -22 -169 -44 -199 -18 -23 -40 -123 -40 -179 -1 -56 -2
-59 -15 -42 -8 11 -15 27 -15 36 0 10 -13 36 -29 60 l-29 43 28 46 c15 25 33
75 40 111 14 78 34 118 63 130 31 12 34 12 41 -6z m656 -10 c7 -7 10 -23 8
-36 -5 -35 -48 -32 -61 5 -5 15 -6 34 -4 42 7 16 41 10 57 -11z m1430 3 c0
-31 -27 -67 -51 -67 -29 0 -25 44 7 69 34 27 44 26 44 -2z m-1062 -23 c2 -16
7 -40 12 -54 5 -14 23 -65 40 -113 18 -49 30 -91 27 -93 -3 -3 -33 15 -67 40
-63 46 -120 69 -146 59 -11 -4 -4 -13 23 -31 79 -52 143 -127 143 -169 0 -26
-3 -27 -30 -13 -27 15 -35 -5 -15 -37 17 -25 17 -27 -1 -40 -10 -7 -23 -13
-29 -13 -23 0 -64 -57 -81 -114 -21 -66 -33 -75 -69 -52 -32 21 -31 42 5 91
47 63 100 176 100 213 0 44 -26 88 -61 102 -37 16 -100 9 -113 -12 -16 -25 -2
-31 32 -14 28 14 32 14 63 -7 44 -30 53 -86 17 -111 -36 -25 -65 -19 -113 25
-51 47 -71 111 -54 173 14 52 54 70 139 63 36 -3 72 -7 79 -9 10 -2 19 15 28
57 21 89 64 126 71 59z m681 10 c11 -14 25 -50 32 -80 11 -49 15 -55 33 -50
12 4 48 9 81 12 50 4 66 2 93 -15 66 -42 67 -103 1 -195 -41 -58 -69 -73 -114
-62 -39 10 -52 48 -32 91 23 48 60 65 87 40 15 -13 24 -15 31 -8 26 26 -29 55
-85 46 -49 -8 -69 -41 -68 -115 1 -86 33 -162 100 -243 l24 -29 -26 -23 c-47
-40 -60 -29 -85 73 -12 47 -30 66 -84 88 -21 9 -37 19 -35 23 2 5 10 20 17 36
17 33 10 43 -18 27 -19 -10 -21 -8 -21 21 0 42 33 85 109 140 33 24 57 47 53
51 -16 16 -110 -24 -162 -68 -29 -24 -55 -42 -58 -40 -6 7 18 95 29 101 9 6
45 117 54 168 7 44 16 46 44 11z m1045 -4 c14 -17 30 -48 35 -68 6 -20 17 -63
26 -94 8 -31 22 -63 30 -72 13 -13 12 -20 -10 -63 -32 -61 -55 -145 -55 -200
0 -67 -19 -138 -50 -187 -31 -49 -56 -61 -47 -23 20 88 20 87 4 87 -9 0 -42
-10 -73 -21 -44 -17 -75 -39 -128 -93 -87 -87 -129 -110 -191 -101 -24 4 -52
13 -62 20 -16 12 -12 19 45 88 34 41 62 78 62 81 0 12 -24 5 -86 -26 -41 -20
-68 -28 -74 -22 -5 5 -6 14 -2 19 11 16 84 71 117 87 17 9 39 25 49 37 11 12
27 21 38 21 35 0 23 -74 -37 -222 -5 -14 -2 -18 12 -18 27 0 87 65 118 129 15
29 37 68 50 86 20 30 22 44 20 137 -2 57 -6 115 -10 131 -18 68 65 1 127 -103
18 -30 39 -67 45 -82 17 -39 30 -35 54 18 20 42 21 50 10 117 -7 40 -19 92
-27 117 -24 69 -42 141 -50 198 -6 48 -5 52 14 52 11 0 32 -14 46 -30z m-2334
-30 c50 -30 73 -52 99 -94 43 -71 36 -89 -14 -37 -37 38 -65 52 -65 33 0 -4
25 -32 55 -62 55 -54 71 -85 38 -73 -10 4 -46 29 -81 57 -58 47 -116 129 -138
198 -9 31 34 21 106 -22z m1960 29 c0 -5 -14 -39 -31 -74 -24 -50 -47 -78
-102 -125 -64 -54 -107 -75 -107 -51 0 5 21 28 48 51 53 47 67 66 52 75 -5 3
-30 -13 -55 -36 -54 -50 -60 -33 -12 37 51 77 207 170 207 123z m-2518 -32
c-38 -45 -71 -131 -77 -201 -4 -42 -12 -79 -17 -82 -7 -4 -8 8 -5 32 16 106
28 167 38 187 18 33 53 76 63 76 5 1 4 -5 -2 -12z m3046 -121 c23 -66 30 -170
12 -181 -6 -4 -10 13 -10 43 0 53 -33 173 -56 207 -8 11 -14 26 -14 35 1 29
46 -40 68 -104z m-1403 74 c9 -29 -11 -92 -47 -141 -25 -33 -33 -40 -36 -26
-2 9 -10 17 -17 17 -8 0 -16 3 -19 8 -8 13 51 129 75 146 30 21 36 20 44 -4z
m-827 -3 l23 -13 -21 -19 c-22 -19 -22 -19 -36 0 -29 40 -12 57 34 32z m568
-9 c51 -58 75 -124 49 -134 -12 -5 -14 -14 -9 -38 l6 -31 -22 20 c-37 33 -70
100 -77 154 -5 46 -4 51 14 51 11 0 28 -10 39 -22z m804 3 c0 -29 -25 -45 -41
-25 -11 14 -10 18 6 30 26 19 35 18 35 -5z m53 -54 c-5 -7 -16 -32 -23 -57
-17 -55 -40 -101 -40 -80 0 16 21 78 32 95 3 6 12 30 19 55 10 35 14 40 17 22
2 -13 0 -28 -5 -35z m-1900 34 c47 -11 44 -8 52 -55 l8 -39 -32 5 c-17 2 -31
3 -31 1 0 -2 14 -22 30 -45 53 -72 33 -61 -59 34 -49 51 -87 96 -85 100 7 11
70 10 117 -1z m2395 -8 c2 -7 -23 -39 -55 -72 -55 -55 -128 -136 -165 -184
-10 -12 -18 -17 -18 -12 0 6 32 48 70 94 71 86 84 109 53 96 -46 -19 -53 -18
-52 6 1 40 14 61 45 75 36 16 116 14 122 -3z m-2517 -45 c57 -32 62 -63 12
-89 -14 -8 -47 -38 -74 -68 -59 -66 -74 -62 -65 20 7 68 48 159 72 159 9 0 34
-10 55 -22z m2622 -10 c31 -71 49 -183 32 -200 -11 -10 -166 152 -163 170 4
22 65 62 94 62 16 0 27 -9 37 -32z m-2057 -93 c23 -66 20 -92 -4 -32 -7 17
-18 40 -23 49 -10 20 -12 65 -2 55 3 -4 17 -36 29 -72z m859 -155 c-20 -38
-44 -38 -79 -1 -28 29 -28 51 -2 51 8 0 19 6 25 14 10 11 8 17 -6 25 -15 8
-16 13 -5 28 7 10 27 40 45 67 l32 49 3 -101 c2 -77 -1 -109 -13 -132z m-305
197 c0 -7 16 -32 36 -57 34 -43 35 -44 13 -52 -17 -7 -19 -11 -9 -23 7 -8 21
-15 31 -15 28 0 23 -27 -8 -55 -37 -32 -57 -31 -73 3 -15 32 -25 159 -16 197
6 25 26 26 26 2z m-883 -9 c-3 -8 -6 -5 -6 6 -1 11 2 17 5 13 3 -3 4 -12 1
-19z m-164 -35 c3 -5 1 -30 -3 -58 -18 -110 30 -266 117 -379 76 -99 99 -89
55 25 -37 94 -42 149 -13 149 10 0 24 -7 31 -15 7 -8 44 -36 81 -61 86 -57
103 -74 90 -87 -14 -14 -99 17 -132 49 -16 16 -29 22 -33 15 -9 -14 18 -56 77
-118 27 -28 46 -56 43 -62 -11 -16 -82 -32 -113 -25 -42 11 -101 51 -168 114
-33 32 -83 69 -111 83 -46 23 -53 31 -73 86 l-22 60 36 71 c20 40 54 91 77
116 40 44 53 51 61 37z m184 -15 c-3 -8 -6 -5 -6 6 -1 11 2 17 5 13 3 -3 4
-12 1 -19z m177 -19 c58 -21 96 -60 96 -98 0 -28 -5 -27 -50 9 -21 17 -43 30
-49 30 -22 0 -10 -29 20 -50 38 -27 31 -36 -15 -20 -37 12 -136 112 -136 137
0 20 71 16 134 -8z m1796 14 c0 -34 -95 -137 -135 -147 -33 -8 -46 1 -25 17
26 21 41 45 32 51 -5 3 -27 -8 -47 -24 -44 -35 -55 -37 -55 -11 0 32 48 79
103 100 52 20 127 28 127 14z m-277 -33 c-3 -11 -7 -20 -9 -20 -2 0 -4 9 -4
20 0 11 4 20 9 20 5 0 7 -9 4 -20z m-1735 -25 c-3 -3 -9 2 -12 12 -6 14 -5 15
5 6 7 -7 10 -15 7 -18z m-428 -117 c0 -16 -2 -28 -5 -28 -12 0 -56 104 -50
119 9 22 55 -54 55 -91z m1497 65 c39 -58 48 -87 48 -152 0 -36 -6 -81 -14
-99 -17 -41 -11 -48 28 -28 38 20 93 20 130 2 50 -26 86 -105 41 -91 -15 5
-23 -2 -40 -35 -12 -23 -26 -39 -33 -37 -19 7 -9 50 16 70 l22 17 -35 30 c-42
35 -60 37 -111 8 -21 -12 -42 -18 -46 -14 -5 4 -10 67 -13 139 -6 171 -24 171
-28 0 -1 -70 -6 -131 -11 -136 -4 -4 -27 1 -52 12 -51 24 -69 26 -69 9 0 -7
19 -22 41 -33 41 -19 69 -49 69 -72 0 -8 -13 -1 -31 14 -42 38 -89 63 -120 63
-40 0 -42 -11 -7 -47 26 -27 30 -37 22 -51 -17 -27 -51 -26 -79 2 -81 81 50
202 169 156 31 -11 31 -10 14 72 -10 50 -9 65 6 115 22 70 43 113 56 113 5 0
17 -12 27 -27z m1503 5 c0 -7 -12 -31 -26 -53 -24 -38 -25 -39 -19 -10 10 46
45 95 45 63z m-585 -54 c-8 -16 -15 -23 -15 -16 0 13 22 53 27 48 2 -2 -3 -16
-12 -32z m616 -112 c-21 -54 -19 -64 14 -52 49 18 97 -39 110 -133 4 -26 11
-50 16 -53 11 -6 29 38 30 74 l0 27 10 -25 c6 -14 8 -41 5 -61 -3 -20 -3 -38
0 -41 3 -3 23 -1 46 4 86 19 74 -35 -32 -143 -58 -60 -83 -79 -103 -79 -35 0
-35 22 -2 75 13 22 25 43 25 48 0 16 -41 6 -115 -28 -105 -48 -127 -41 -47 15
68 47 104 100 104 154 1 43 -18 86 -38 86 -13 0 -16 -7 -12 -32 3 -18 3 -39 1
-45 -6 -18 -48 -16 -63 2 -11 13 -16 13 -48 -1 -21 -9 -43 -18 -49 -21 -18 -7
-16 22 2 37 23 19 65 119 65 155 0 27 8 39 47 69 26 20 49 33 51 28 1 -5 -6
-32 -17 -60z m-3074 28 c29 -17 43 -32 43 -46 0 -32 37 -132 60 -161 11 -14
20 -30 20 -34 0 -17 -41 -9 -80 16 -52 33 -60 32 -60 -11 0 -44 12 -67 61
-121 63 -69 49 -80 -45 -37 -51 23 -76 25 -76 5 0 -4 16 -28 36 -54 37 -48 38
-67 2 -67 -24 0 -108 46 -108 59 0 4 -20 39 -45 77 -25 37 -44 73 -42 78 7 21
23 15 40 -14 10 -16 21 -30 25 -30 14 0 33 59 26 84 -12 48 15 115 58 146 22
16 44 30 49 32 6 2 3 24 -6 53 -8 28 -15 52 -15 53 0 5 9 1 57 -28z m1233 11
c0 -5 -5 -11 -12 -13 -7 -3 16 -23 50 -47 34 -23 62 -46 62 -51 0 -16 -79 -11
-105 6 -35 23 -78 83 -71 99 6 16 76 21 76 6z m645 -2 c8 -12 -40 -84 -69
-105 -23 -16 -92 -19 -101 -4 -3 5 16 23 42 40 65 40 79 53 65 58 -7 2 -12 8
-12 13 0 13 67 11 75 -2z m-1145 -54 c0 -24 5 -35 15 -35 9 0 15 9 15 24 0 36
16 40 45 12 30 -30 31 -45 4 -80 -27 -34 -54 -33 -90 3 -31 31 -39 77 -17 99
20 20 28 14 28 -23z m164 9 c10 -26 7 -34 -13 -34 -23 0 -35 15 -27 35 7 20
32 19 40 -1z m1284 -12 c3 -18 -2 -22 -22 -22 -28 0 -34 18 -14 38 17 17 32
10 36 -16z m86 22 c9 -3 16 -18 16 -33 1 -24 2 -25 15 -8 7 11 11 25 8 33 -9
24 13 15 27 -10 18 -34 5 -73 -30 -91 -39 -20 -56 -19 -81 6 -23 23 -20 60 8
92 18 20 16 19 37 11z m-1090 -73 c36 -43 37 -45 31 -110 -5 -57 -3 -71 17
-106 23 -38 26 -40 73 -40 48 0 50 1 73 43 13 23 28 42 33 42 19 0 33 -49 22
-73 -9 -20 -6 -31 18 -67 33 -49 35 -62 14 -80 -12 -10 -18 -10 -30 0 -8 7
-15 18 -15 26 0 54 -71 -25 -76 -84 -2 -20 -3 -40 -3 -44 -1 -3 -21 -14 -45
-23 -44 -17 -46 -17 -92 5 -39 19 -50 32 -71 79 -14 31 -27 58 -29 60 -2 3
-24 4 -48 2 -25 -1 -61 5 -82 14 -20 8 -44 15 -54 15 -17 0 -81 69 -130 140
-14 19 -35 43 -47 53 -30 24 -29 37 1 37 24 0 146 -75 146 -90 0 -5 29 -38 65
-74 l66 -66 44 11 c39 10 49 9 79 -9 19 -11 37 -18 40 -15 7 7 -44 81 -78 112
-15 14 -38 45 -52 69 -24 40 -27 42 -43 28 -10 -9 -33 -16 -52 -16 -40 0 -139
46 -139 63 1 7 14 27 29 45 23 27 34 33 53 27 37 -11 91 -37 120 -58 31 -23
53 -18 61 15 11 43 48 119 57 116 4 -2 24 -23 44 -47z m770 -26 c21 -55 26
-79 18 -87 -16 -16 -116 -48 -124 -40 -4 4 -10 32 -14 63 -6 55 -5 57 31 98
21 22 43 41 49 41 6 0 24 -34 40 -75z m-1805 36 c26 -19 59 -96 47 -109 -16
-15 -86 78 -86 113 0 20 6 19 39 -4z m2081 -106 c0 -6 -18 -29 -40 -50 -43
-42 -54 -67 -17 -42 68 49 157 89 157 72 0 -3 -28 -40 -63 -83 -35 -42 -72
-90 -82 -107 -10 -16 -41 -54 -69 -82 -91 -95 -35 -76 116 39 101 76 130 87
242 88 l89 0 71 74 c107 111 206 182 206 147 0 -5 -11 -34 -25 -65 -28 -62
-32 -104 -12 -112 7 -2 42 2 78 11 83 19 89 19 89 -4 0 -32 -155 -212 -208
-242 -68 -39 -68 -53 2 -46 63 6 108 29 100 50 -3 8 1 18 8 24 15 12 206 48
214 40 3 -3 -2 -16 -10 -30 -16 -24 -16 -25 15 -31 17 -3 48 -6 68 -6 21 0 80
-9 132 -21 116 -25 268 -30 293 -10 27 23 41 -2 41 -74 0 -56 -3 -68 -26 -91
-35 -34 -95 -41 -174 -20 -33 10 -84 23 -113 32 -30 8 -66 20 -80 28 l-27 14
25 6 c14 3 45 7 69 8 84 5 52 23 -91 53 -155 31 -323 44 -340 27 -12 -12 1
-16 78 -26 23 -3 69 -22 103 -41 34 -19 89 -51 124 -71 34 -19 69 -42 77 -49
22 -19 146 -79 217 -105 76 -27 128 -23 182 15 22 14 46 44 57 67 l18 40 18
-22 c21 -26 23 -49 6 -86 -11 -25 -10 -29 23 -58 45 -39 52 -59 35 -100 -11
-27 -25 -37 -76 -56 -81 -30 -162 -30 -250 0 -67 24 -120 55 -120 71 0 5 64 9
150 9 83 0 150 4 150 8 0 14 -65 30 -204 53 -71 11 -161 32 -200 45 -38 13
-72 22 -73 20 -2 -2 37 -52 86 -112 159 -192 185 -301 137 -579 -14 -82 -30
-185 -37 -227 -13 -83 -31 -102 -49 -50 -17 46 -26 57 -55 62 -15 3 -33 14
-39 25 -17 30 -26 34 -60 24 -56 -16 -121 -11 -156 14 -43 29 -49 47 -16 47
15 0 54 9 87 20 57 19 63 20 79 5 21 -19 25 -14 35 45 4 25 22 68 40 95 62 95
69 115 69 195 1 73 -1 78 -47 153 -45 72 -95 116 -116 103 -5 -3 -11 -23 -14
-44 -8 -46 -31 -81 -46 -67 -16 16 -71 156 -71 182 0 29 29 43 42 20 14 -26
27 -20 33 16 7 38 -7 82 -38 116 l-22 24 30 -5 c17 -3 38 -9 48 -13 28 -12 20
11 -18 53 -20 23 -64 53 -107 73 -67 31 -81 34 -169 34 -86 0 -103 -3 -157
-29 l-61 -29 -20 24 -19 24 -26 -24 c-32 -31 -64 -23 -94 24 -25 39 -37 44
-45 16 -4 -18 -8 -17 -62 10 -32 16 -66 29 -75 29 -10 0 -57 -20 -104 -46 -70
-36 -95 -45 -129 -42 -63 5 -61 29 5 72 30 19 74 40 99 47 56 16 278 15 426
-1 127 -13 156 -7 95 21 -80 37 -62 63 36 54 38 -4 62 -3 62 3 0 6 -6 13 -12
16 -13 5 -5 15 58 64 l29 22 -70 -2 -70 -3 2 31 3 32 -43 -13 c-23 -7 -76 -29
-117 -48 -41 -19 -103 -45 -138 -56 -34 -12 -97 -35 -140 -52 -101 -41 -144
-55 -222 -75 -279 -70 -367 -84 -535 -84 -108 0 -155 6 -155 19 0 4 14 15 31
25 28 17 33 17 70 2 94 -38 204 -6 312 92 28 26 65 57 81 70 36 27 29 38 -16
23 -49 -16 -143 -10 -143 9 0 12 13 15 60 15 l60 0 147 147 c111 110 158 150
190 161 l43 15 32 -36 c18 -21 33 -42 33 -47z m-1946 36 c17 -11 68 -59 114
-107 l83 -87 92 -2 c103 -2 144 -16 219 -74 26 -20 70 -52 98 -71 27 -19 45
-37 39 -39 -6 -1 -81 14 -167 34 -153 36 -292 83 -322 110 -8 7 -27 16 -42 20
-25 6 -27 5 -25 -22 l2 -28 -69 3 c-76 4 -80 -5 -15 -38 39 -21 48 -33 29 -45
-6 -4 -7 -11 -4 -17 4 -7 29 -8 70 -4 41 4 65 3 69 -4 10 -16 -23 -49 -59 -60
-21 -6 33 -7 159 -2 322 12 393 3 487 -60 26 -18 48 -36 48 -40 0 -13 -71 -30
-98 -24 -15 4 -64 25 -110 48 -78 38 -85 40 -121 29 -21 -6 -44 -18 -51 -26
-17 -20 -37 -19 -49 2 -8 16 -14 13 -49 -25 -44 -47 -59 -51 -93 -21 l-24 20
-16 -20 c-10 -12 -22 -21 -28 -21 -6 0 -47 18 -91 40 -44 22 -88 40 -99 40
-11 0 -30 -13 -43 -28 -13 -16 -47 -42 -76 -58 -28 -16 -107 -63 -174 -105
-68 -42 -134 -82 -147 -89 -37 -19 -168 -39 -263 -40 -94 0 -118 -5 -118 -25
0 -18 69 -22 220 -14 68 4 127 6 129 3 11 -11 -18 -40 -60 -61 -66 -34 -175
-47 -259 -33 -135 23 -177 86 -106 159 26 27 33 40 26 51 -20 31 -6 120 19
120 5 0 14 -13 21 -30 18 -44 83 -98 127 -106 66 -12 226 45 336 120 34 23 88
58 120 76 57 34 70 50 42 50 -8 0 -61 -16 -117 -35 -57 -20 -150 -47 -207 -61
-88 -22 -111 -24 -140 -15 -52 16 -72 35 -81 75 -7 32 1 110 13 122 3 3 27 -2
54 -11 58 -20 156 -15 253 15 80 24 202 27 220 5 15 -18 14 -19 -100 -35 -47
-7 -123 -18 -169 -26 -46 -8 -107 -14 -135 -15 -28 0 -60 -4 -71 -8 -19 -8
-19 -8 2 -19 46 -25 193 -12 542 50 41 7 76 18 78 26 7 17 -21 37 -72 52 -41
12 -75 36 -75 53 0 14 76 0 122 -24 23 -12 44 -17 49 -12 10 10 -9 37 -82 124
-49 57 -66 93 -50 103 5 4 44 -1 86 -9 105 -22 114 -12 70 75 -43 85 -28 112
39 71z m1348 -71 c-28 -21 -53 -44 -57 -50 -7 -12 -25 -14 -25 -2 0 11 53 68
75 80 11 6 28 12 38 12 13 0 2 -13 -31 -40z m37 -82 l24 -42 -29 -23 c-16 -13
-32 -23 -36 -23 -14 0 -20 -48 -8 -69 9 -17 8 -22 -5 -27 -9 -4 -19 -4 -22 0
-14 13 -4 76 15 104 14 19 18 33 11 43 -12 20 -11 53 3 67 18 18 21 16 47 -30z
m1358 -42 c-4 -9 -13 -16 -22 -16 -18 0 -19 5 -4 32 13 24 35 9 26 -16z
m-1496 -66 c10 -6 19 -17 19 -26 0 -19 46 -110 60 -119 21 -13 9 -37 -26 -51
-42 -18 -79 -12 -117 19 l-29 22 21 27 c16 20 41 102 41 134 0 7 11 4 31 -6z
m-560 -68 c39 -25 159 -125 156 -128 -2 -2 -27 4 -56 14 -36 11 -56 24 -61 38
-5 12 -25 34 -44 49 -53 40 -48 63 5 27z m-1341 -23 c0 -25 -33 -22 -38 4 -2
12 3 17 17 17 15 0 21 -6 21 -21z m3920 0 c0 -15 -5 -20 -22 -17 -34 5 -37 38
-4 38 20 0 26 -5 26 -21z m-3115 -259 c31 -33 28 -43 -24 -70 -39 -19 -91 -73
-91 -92 0 -6 12 -8 29 -5 40 8 45 -2 16 -33 -13 -14 -40 -58 -60 -98 -39 -80
-56 -93 -85 -67 -32 29 -33 51 -5 79 17 17 25 36 25 60 0 20 11 60 24 91 20
43 35 61 70 83 48 28 56 55 20 60 -39 6 -137 -138 -150 -221 -7 -42 -19 -54
-37 -39 -7 6 -25 12 -42 14 -56 6 -38 58 60 181 74 93 190 119 250 57z m1450
31 c241 -10 339 -27 440 -76 85 -41 65 -44 -79 -10 -108 25 -209 32 -236 15
-21 -13 16 -25 123 -39 165 -22 344 -77 355 -108 5 -18 -89 -17 -158 3 -181
50 -228 59 -250 45 -18 -12 -18 -12 120 -40 113 -24 220 -58 220 -72 0 -13
-23 -11 -103 10 -125 33 -207 45 -219 33 -14 -14 80 -60 139 -69 21 -4 52 -12
68 -19 l30 -13 -30 0 c-16 0 -61 4 -100 9 -286 39 -339 42 -605 42 -181 0
-328 -6 -430 -16 -256 -27 -304 -30 -297 -19 4 6 28 16 54 23 59 16 124 50
117 62 -12 20 -79 7 -277 -52 -21 -6 -50 -10 -64 -8 l-27 3 25 12 c43 20 133
50 184 61 28 6 76 16 108 23 83 18 72 33 -20 26 -51 -3 -114 -17 -183 -40
-139 -46 -154 -49 -187 -36 l-28 11 50 23 c120 53 356 115 445 115 57 0 82 10
69 26 -20 24 -141 17 -264 -15 -111 -29 -164 -48 -267 -95 -47 -21 -58 -23
-58 -10 0 53 183 142 360 175 55 10 339 21 675 26 50 1 185 -2 300 -6z m970
-14 c54 -27 155 -130 155 -157 0 -36 -93 -122 -128 -118 -23 3 -28 9 -34 45
-8 46 -38 112 -76 161 -27 36 -77 66 -92 57 -20 -12 -9 -31 35 -60 70 -47 120
-139 86 -159 -5 -3 -42 29 -82 72 -41 42 -85 84 -98 93 -33 21 -22 45 31 70
51 23 154 22 203 -4z m-2765 -82 c0 -13 -30 -62 -44 -74 -25 -21 -19 -63 15
-104 29 -35 31 -43 27 -93 -8 -96 -48 -99 -82 -6 -10 29 -22 52 -27 52 -19 0
-93 -87 -115 -135 -18 -39 -24 -67 -24 -126 0 -119 28 -179 108 -230 48 -31
90 -37 110 -17 21 21 13 31 -19 24 -41 -8 -72 1 -88 25 -10 17 -9 30 5 75 33
105 99 123 181 49 76 -68 112 -183 83 -261 -6 -15 -9 -29 -6 -31 2 -2 33 20
68 51 34 30 96 73 135 96 77 43 78 44 107 170 14 61 46 64 46 4 0 -38 9 -42
44 -18 38 24 41 0 10 -64 -42 -89 -120 -188 -203 -258 -128 -109 -343 -199
-333 -139 2 10 26 43 53 73 57 62 62 80 17 55 -26 -14 -55 -17 -130 -16 l-96
1 -12 -29 c-10 -23 -19 -29 -41 -29 -23 0 -32 -6 -39 -27 -22 -61 -46 -80 -54
-41 -2 13 -11 58 -20 101 -9 43 -16 86 -16 97 0 20 0 20 50 0 60 -24 119 -26
146 -5 18 14 17 14 -16 15 -83 2 -184 62 -200 119 -14 52 -12 215 5 293 25
121 87 219 194 308 80 67 161 114 161 95z m2600 -110 c0 -8 -4 -15 -9 -15 -13
0 -22 16 -14 24 11 11 23 6 23 -9z m-3486 -17 c15 -57 32 -97 50 -117 49 -55
148 -73 319 -59 65 5 121 7 124 5 13 -13 -24 -50 -88 -88 -61 -37 -80 -43
-144 -47 -48 -3 -99 1 -150 13 -42 9 -80 14 -83 10 -12 -12 56 -60 103 -73 25
-7 83 -12 130 -12 100 0 107 -10 44 -63 -34 -29 -52 -37 -118 -46 -141 -21
-272 14 -335 90 -43 50 -32 129 20 149 20 8 24 16 24 53 0 48 13 96 38 142 25
47 59 69 66 43z m4780 -19 c36 -28 56 -80 56 -145 0 -46 3 -56 25 -70 14 -9
29 -33 36 -56 9 -35 7 -46 -13 -86 -34 -68 -92 -94 -223 -100 -130 -6 -209 10
-248 50 -42 41 -25 52 103 67 104 12 161 29 174 50 5 7 -5 11 -28 11 -19 0
-36 5 -38 11 -3 8 -14 8 -43 0 -22 -6 -71 -11 -108 -11 -82 0 -155 31 -214 92
l-38 40 85 -9 c47 -4 126 -7 177 -7 80 2 98 5 144 30 60 32 99 82 99 125 0 35
17 37 54 8z m-3537 -16 c-22 -70 -37 -132 -37 -153 0 -35 35 -108 62 -131 23
-19 23 -19 3 -35 -20 -15 -54 -15 -117 1 -23 6 -29 3 -43 -26 -10 -19 -24 -42
-33 -52 -15 -16 -16 -16 -35 0 -24 22 -38 55 -46 108 -7 43 -2 41 -83 28 -48
-7 -49 8 -4 35 32 19 34 24 29 56 -7 43 4 46 45 11 44 -36 88 -51 108 -34 9 7
33 47 54 88 39 77 72 121 92 121 5 0 8 -8 5 -17z m2307 -27 c13 -13 32 -50 42
-82 19 -63 39 -94 60 -94 7 0 39 15 71 34 32 19 61 32 65 29 5 -2 8 -20 8 -38
0 -30 5 -37 38 -54 30 -16 34 -21 19 -26 -9 -4 -30 -5 -45 -2 -66 13 -64 15
-79 -38 -31 -109 -61 -124 -107 -54 -23 33 -32 40 -49 34 -68 -21 -117 -17
-117 10 0 8 16 36 36 62 35 45 35 48 31 122 -2 42 -7 86 -12 99 -10 29 9 29
39 -2z m-2200 -22 c10 -27 7 -52 -9 -58 -8 -3 -15 -16 -15 -30 0 -26 -23 -56
-44 -56 -39 0 -49 74 -16 128 15 24 27 32 49 32 17 0 31 -6 35 -16z m2022 -39
c-8 -21 -50 -16 -54 7 -2 11 5 18 20 20 29 5 43 -6 34 -27z m387 18 c-16 -45
-45 -74 -72 -71 -21 2 -27 9 -29 35 -3 29 0 33 30 42 55 16 78 14 71 -6z
m-1037 -2 c82 -5 170 -14 193 -21 145 -39 239 -117 312 -260 84 -164 122 -229
179 -303 74 -97 125 -146 255 -247 99 -77 114 -92 145 -154 l35 -69 3 -158 c6
-242 -32 -486 -117 -761 -12 -38 -29 -97 -40 -131 -10 -35 -39 -112 -65 -170
-25 -58 -46 -109 -46 -112 0 -16 -148 -308 -192 -378 -26 -43 -48 -81 -48 -83
0 -10 -172 -259 -199 -289 -15 -16 -39 -46 -53 -65 -39 -54 -256 -269 -323
-321 -132 -102 -357 -219 -422 -219 -22 0 -156 70 -188 99 -11 9 -33 26 -50
36 -63 39 -224 177 -316 272 -190 195 -321 365 -448 583 -24 41 -55 92 -68
112 -12 21 -23 40 -23 44 0 3 -25 56 -56 118 -91 181 -176 417 -224 620 -59
250 -71 338 -77 555 -7 250 0 289 63 363 25 29 71 69 103 90 71 45 259 232
286 284 10 22 31 57 45 79 27 41 40 68 109 218 72 157 107 186 251 206 312 44
386 52 590 60 102 4 196 8 210 9 14 1 93 -3 176 -7z m764 -52 c9 -16 8 -26 -5
-45 -18 -28 -37 -31 -59 -8 -14 14 -14 18 -1 45 18 34 49 38 65 8z m-3828
-139 c32 -24 59 -89 51 -121 -10 -41 -33 -59 -76 -59 -33 0 -45 6 -73 37 -38
41 -53 39 -34 -6 22 -55 100 -124 190 -168 120 -58 154 -69 187 -57 38 13 40
44 7 94 -15 22 -24 43 -21 47 4 3 44 -2 89 -11 111 -21 185 -20 251 4 60 22
146 97 175 149 10 19 23 36 30 39 7 2 -6 -32 -28 -77 -22 -44 -40 -82 -40 -85
0 -16 37 -3 45 16 6 12 16 24 24 26 16 5 -26 -78 -45 -90 -7 -4 -15 -20 -19
-35 -6 -27 -63 -104 -95 -131 -63 -52 -186 -105 -274 -118 -116 -17 -254 -80
-321 -145 -35 -33 -43 -37 -58 -27 -25 19 -47 82 -47 132 0 57 18 71 136 111
71 24 83 31 60 33 -33 4 -107 -21 -148 -50 -26 -18 -28 -18 -28 -2 0 10 7 25
15 34 15 16 12 20 -27 43 -99 58 -151 141 -151 242 -1 73 30 137 82 172 43 29
108 31 143 3z m5560 -10 c59 -39 78 -70 85 -133 7 -72 -10 -125 -63 -196 -33
-45 -56 -64 -89 -77 -50 -19 -53 -25 -26 -63 28 -39 42 -100 32 -143 -9 -40
-46 -98 -63 -98 -5 0 -31 18 -56 41 -60 53 -167 102 -267 123 -160 35 -218 58
-308 124 -54 40 -97 101 -97 137 0 8 -9 20 -21 27 -23 15 -64 86 -54 96 4 4
11 -1 16 -10 35 -63 76 -54 44 9 -11 21 -21 42 -24 48 -2 5 19 -11 48 -37 98
-88 236 -116 386 -79 44 11 82 17 84 15 3 -2 -5 -25 -17 -49 -26 -53 -28 -78
-7 -95 56 -46 343 119 385 221 19 45 4 47 -34 6 -26 -29 -41 -37 -68 -37 -45
0 -76 23 -84 64 -8 44 11 84 55 113 46 31 88 29 143 -7z m-4443 6 c30 -36 -9
-104 -46 -80 -30 19 -38 40 -25 68 13 29 52 35 71 12z m3253 -11 c16 -35 -3
-75 -35 -75 -30 0 -47 18 -47 50 0 52 61 71 82 25z m276 -41 c2 -28 2 -28 -13
-10 -18 24 -20 49 -2 44 6 -3 13 -18 15 -34z m-900 -21 c6 -10 13 -34 17 -53
20 -102 23 -108 76 -134 64 -33 264 -200 312 -262 71 -91 31 -106 -106 -41
-80 38 -114 62 -222 156 -52 45 -139 160 -166 219 -16 36 -27 67 -24 70 3 3
16 0 30 -6 14 -7 27 -12 29 -12 2 0 6 18 10 40 7 43 28 54 44 23z m531 -42
c19 -9 44 -29 55 -44 l20 -27 -22 -46 -23 -46 -54 4 c-30 1 -55 0 -55 -4 0 -4
12 -16 27 -28 27 -21 27 -22 8 -33 -69 -41 -158 -50 -175 -18 -11 22 -13 83
-4 129 8 39 68 110 108 128 34 15 64 11 115 -15z m-2725 -54 c15 -24 -8 -62
-62 -104 -65 -49 -71 -44 -47 35 6 17 3 22 -10 22 -28 0 -13 34 25 53 42 21
79 19 94 -6z m2400 8 c43 -18 56 -43 32 -60 -15 -12 -15 -15 1 -43 35 -61 -14
-54 -76 11 -47 48 -58 72 -41 92 16 19 38 19 84 0z m-3133 -147 c9 -35 8 -60
-6 -133 -9 -49 -19 -103 -22 -120 l-6 -30 26 23 c16 15 27 20 32 13 12 -21
-26 -257 -59 -366 -18 -57 -20 -95 -7 -95 18 0 39 41 66 128 39 123 45 136 55
126 12 -12 30 -269 30 -441 0 -115 3 -141 13 -137 32 12 47 -39 56 -196 6 -97
10 -119 27 -136 11 -11 40 -70 64 -130 24 -60 63 -147 86 -193 24 -47 42 -86
40 -89 -3 -2 -13 -1 -23 2 -27 10 -76 82 -114 169 -35 83 -46 97 -59 77 -15
-25 -36 -2 -50 53 -11 49 -11 221 1 266 9 32 -24 19 -68 -28 -27 -28 -54 -51
-61 -51 -23 0 -19 147 9 277 30 146 23 159 -32 63 -36 -64 -51 -72 -65 -39 -9
19 -12 17 -40 -23 -38 -55 -92 -84 -113 -63 -16 16 -27 119 -17 158 3 13 24
42 46 63 22 21 40 45 40 52 0 26 -38 10 -85 -38 -52 -53 -69 -60 -79 -33 -9
23 21 107 45 129 12 11 53 35 92 54 39 19 79 46 88 60 21 30 33 100 21 118
-16 25 -41 1 -119 -114 -19 -28 -30 -33 -78 -39 -107 -14 -111 12 -18 116 49
54 63 75 50 77 -9 2 -25 -2 -36 -7 -26 -14 -61 -14 -61 1 0 39 96 113 171 131
68 17 103 90 114 243 11 154 24 183 46 102z m3810 20 c10 -208 16 -246 45
-289 29 -43 42 -52 115 -84 48 -21 143 -110 134 -125 -7 -12 -44 -10 -77 5
-35 14 -18 -17 43 -80 45 -47 60 -69 57 -87 -3 -20 -9 -23 -57 -26 -51 -3 -56
-1 -93 35 -22 21 -48 55 -59 75 -20 39 -56 71 -71 62 -14 -9 -8 -67 11 -110
23 -50 61 -81 117 -95 48 -12 60 -23 99 -95 28 -50 29 -84 3 -84 -8 0 -40 20
-73 45 -33 25 -63 45 -67 45 -16 0 -7 -27 13 -46 47 -42 72 -101 72 -170 0
-36 -5 -70 -10 -75 -5 -5 -24 -4 -46 2 -35 9 -58 33 -104 105 -10 17 -12 16
-23 -13 -21 -57 -42 -37 -67 62 -16 67 -34 88 -56 66 -9 -9 -7 -23 6 -59 10
-26 27 -76 38 -112 30 -100 27 -260 -5 -260 -7 0 -33 23 -58 50 -33 36 -51 48
-63 44 -12 -5 -15 -14 -10 -31 27 -109 26 -240 -2 -295 -13 -27 -43 -39 -43
-18 0 27 -23 4 -44 -44 -41 -92 -140 -226 -155 -210 -4 4 74 178 104 234 7 14
27 61 45 104 17 44 38 88 46 100 7 11 14 41 14 66 0 61 17 168 33 216 8 26 18
39 30 38 10 -1 19 7 22 20 2 11 6 136 7 276 2 140 7 261 12 268 15 25 36 -9
67 -112 34 -107 46 -133 61 -118 9 9 3 50 -48 297 -13 66 -24 130 -24 143 0
26 25 30 39 5 16 -29 22 -9 12 38 -25 114 -25 249 -1 249 6 0 10 -6 11 -12z
m-4114 -340 c-19 -46 -45 -114 -56 -152 -29 -96 -72 -187 -85 -183 -6 2 -20
19 -31 38 -16 27 -20 50 -19 119 1 92 16 137 59 183 42 44 74 30 42 -18 -18
-27 -57 -124 -57 -141 0 -33 20 -7 68 89 49 98 97 166 109 154 3 -3 -11 -43
-30 -89z m171 66 c4 -25 -22 -49 -43 -40 -15 5 -21 47 -8 60 14 14 48 1 51
-20z m4101 7 c7 -13 6 -23 -3 -36 -23 -32 -67 2 -52 40 8 21 43 19 55 -4z
m147 -12 c12 -11 34 -23 50 -28 21 -5 30 -15 35 -37 3 -16 20 -57 37 -91 37
-71 50 -137 32 -148 -8 -5 -16 -1 -22 9 -8 13 -13 15 -24 6 -11 -10 -11 -16 1
-41 32 -60 11 -80 -28 -26 -28 38 -39 65 -67 170 -11 43 -35 106 -53 140 -17
34 -34 66 -36 71 -6 15 53 -5 75 -25z m251 -104 c56 -39 143 -229 117 -255
-18 -18 -82 9 -112 46 -27 33 -72 155 -72 196 0 28 35 35 67 13z m-4927 -4 c0
-5 -7 -21 -14 -37 -20 -37 -11 -48 21 -27 l25 17 -6 -35 c-19 -95 -73 -161
-146 -176 -25 -5 -30 -2 -30 14 0 57 80 220 119 243 20 12 31 12 31 1z m4131
-7 c48 -58 -5 -644 -79 -879 -11 -33 -29 -94 -41 -135 -12 -41 -40 -120 -63
-175 -22 -55 -48 -120 -58 -145 -78 -211 -349 -670 -395 -670 -15 0 2 43 95
235 75 155 176 377 185 405 4 14 16 43 26 65 66 147 137 397 174 610 12 67 28
294 38 525 2 51 3 53 15 32 24 -43 42 -156 43 -282 1 -118 2 -123 14 -85 18
55 18 298 0 400 -13 72 -13 81 2 97 20 22 27 22 44 2z m-3315 -144 c-20 -149
-20 -249 -2 -316 31 -116 35 -98 36 136 0 124 4 231 9 238 21 34 43 -116 61
-431 12 -222 41 -389 92 -537 22 -63 46 -137 54 -165 9 -27 21 -63 29 -80 7
-16 32 -75 55 -130 39 -92 168 -369 238 -510 17 -33 28 -62 25 -65 -14 -15
-190 221 -223 299 -8 20 -27 56 -42 81 -15 25 -41 77 -58 115 -18 39 -50 107
-71 152 -35 74 -76 186 -143 388 -31 91 -83 320 -101 443 -18 119 -19 296 -1
377 13 61 45 139 53 131 3 -2 -3 -59 -11 -126z m4156 -147 c99 -100 154 -265
128 -386 -6 -32 -17 -57 -24 -57 -23 0 -64 55 -90 120 -21 56 -69 238 -91 348
-10 48 12 41 77 -25z m-5068 -97 c-10 -36 -14 -70 -10 -74 5 -4 21 9 37 28 26
30 29 32 29 13 0 -12 -4 -32 -9 -45 -5 -13 -14 -48 -20 -78 -26 -120 -34 -140
-68 -170 -41 -37 -51 -37 -63 -4 -25 65 -6 223 37 308 24 48 70 102 79 94 2
-3 -3 -35 -12 -72z m-105 4 c-45 -85 -58 -219 -39 -390 21 -181 33 -196 70
-85 33 100 79 146 94 93 3 -13 6 -57 6 -98 0 -72 11 -112 26 -97 4 4 11 109
15 235 6 211 19 312 40 312 16 0 21 -47 21 -225 0 -309 -17 -447 -73 -581 -60
-144 -114 -189 -226 -188 -35 0 -66 3 -69 7 -15 14 10 64 54 108 122 122 162
185 162 253 0 77 -38 40 -89 -86 -23 -58 -87 -128 -116 -128 -18 0 -18 -3 -5
113 5 51 17 175 25 277 20 244 36 337 80 465 15 44 33 70 43 61 1 -2 -7 -23
-19 -46z m5315 23 c7 -16 17 -44 21 -63 l7 -35 -22 40 c-12 22 -26 44 -31 50
-5 5 -9 15 -9 22 0 22 19 14 34 -14z m-4956 -113 c19 -41 54 -122 78 -180 25
-57 58 -128 75 -156 35 -63 36 -81 5 -96 -59 -26 -200 72 -245 172 -22 48 -27
115 -11 140 7 12 12 7 25 -22 8 -21 15 -42 15 -47 0 -16 59 -73 70 -66 6 3 8
10 5 15 -6 10 -51 179 -70 264 -14 65 -10 102 9 70 6 -11 26 -53 44 -94z
m4652 86 c0 -37 -33 -165 -64 -247 -18 -49 -30 -92 -25 -95 23 -14 84 50 90
95 2 14 10 26 17 29 20 6 15 -80 -9 -142 -35 -95 -158 -181 -223 -156 -14 5
-29 16 -32 24 -3 8 21 70 55 138 33 68 74 159 91 202 49 123 100 201 100 152z
m98 -93 c22 -44 33 -153 30 -308 -1 -90 1 -167 5 -172 17 -16 28 24 23 82 -6
74 5 129 26 133 15 3 78 -82 78 -106 0 -21 34 -82 45 -82 8 0 15 37 20 108 4
59 10 145 14 192 3 47 9 80 13 74 4 -6 12 -65 18 -130 30 -321 42 -424 55
-482 8 -35 13 -68 9 -73 -25 -41 -105 43 -154 164 -13 31 -32 65 -42 74 -16
14 -18 14 -24 -1 -22 -58 44 -182 152 -285 47 -45 84 -87 81 -94 -2 -7 -15
-18 -29 -26 -22 -13 -33 -13 -90 3 -122 33 -202 140 -245 331 -17 71 -29 429
-18 538 7 76 16 93 33 60z m-421 -282 c16 -21 16 -72 -1 -93 -8 -11 -27 -18
-48 -18 -30 0 -38 5 -51 31 -35 74 52 144 100 80z m-3981 -6 c17 -26 13 -67
-8 -92 -29 -35 -108 2 -108 50 0 64 82 94 116 42z m-352 -151 c43 -66 56 -96
56 -124 0 -45 -20 -65 -55 -56 -24 6 -85 61 -85 77 0 4 -3 14 -6 22 -3 9 4 25
15 36 19 19 19 22 4 60 -15 39 -13 71 6 71 5 0 34 -39 65 -86z m4666 24 c-1
-35 1 -79 5 -98 5 -27 2 -41 -14 -62 -29 -37 -73 -51 -100 -32 -41 29 -17 116
55 200 26 30 48 54 51 54 2 0 3 -28 3 -62z m-281 -72 c71 -37 108 -159 61
-206 -24 -24 -59 -26 -86 -5 -27 21 -34 19 -34 -11 0 -54 71 -94 167 -94 53 0
160 84 178 140 10 31 24 24 45 -22 33 -74 25 -129 -29 -190 -51 -59 -176 -74
-288 -35 -46 16 -152 103 -174 144 -9 17 -14 57 -14 112 0 75 3 90 23 116 49
62 98 78 151 51z m-4042 -40 c43 -40 47 -47 51 -103 5 -68 -17 -125 -74 -192
-48 -56 -106 -87 -186 -102 -114 -21 -217 12 -253 81 -28 55 -13 200 21 200 8
0 14 -4 14 -9 0 -5 23 -37 51 -70 58 -69 100 -87 180 -76 40 6 55 14 89 51 40
43 51 79 28 86 -7 3 -19 -9 -28 -26 -20 -41 -50 -44 -88 -7 -25 23 -32 37 -32
68 0 71 72 143 143 143 31 0 46 -8 84 -44z m167 -68 c5 -14 6 -40 2 -59 -7
-37 -69 -119 -81 -107 -4 4 -2 36 5 70 23 119 52 157 74 96z m3629 -15 c21
-48 37 -142 26 -149 -15 -9 -48 15 -64 46 -8 16 -15 54 -15 85 0 47 3 55 18
55 12 0 25 -14 35 -37z m-4066 -79 c3 -8 -2 -23 -11 -32 -15 -15 -17 -15 -32
0 -21 21 -11 48 16 48 11 0 23 -7 27 -16z m4493 0 c11 -12 10 -18 -4 -32 -16
-16 -18 -16 -31 1 -26 36 8 65 35 31z m-3945 -163 c60 -34 133 -110 162 -169
33 -67 37 -154 10 -196 -54 -82 -207 -62 -207 26 0 24 7 32 35 44 46 19 52 18
81 -11 32 -32 54 -19 54 32 0 40 -12 67 -48 106 -36 38 -49 34 -59 -15 -13
-67 -42 -64 -110 11 l-55 60 -67 -6 c-76 -6 -181 4 -181 17 0 10 89 78 130
100 68 36 190 37 255 1z m3580 7 c35 -14 141 -83 151 -99 13 -22 -23 -30 -131
-28 l-110 2 -59 -57 c-77 -73 -106 -73 -106 0 0 59 -78 24 -98 -44 -26 -87 -7
-127 40 -87 37 31 68 32 97 1 25 -27 23 -48 -10 -90 -37 -47 -135 -29 -146 27
-4 18 -15 32 -29 38 -19 7 -24 16 -24 46 0 141 130 286 275 306 41 6 113 -1
150 -15z m-4366 -63 c13 -54 15 -56 26 -35 l12 23 22 -22 c27 -27 27 -54 -3
-155 -13 -44 -27 -93 -30 -108 -8 -34 -26 -36 -53 -5 -42 46 -48 68 -47 187 0
90 4 122 18 148 9 18 22 32 29 29 6 -2 18 -30 26 -62z m4978 19 c34 -97 25
-239 -20 -306 -39 -57 -49 -49 -85 69 -34 113 -39 152 -22 184 23 41 60 6 60
-56 0 -13 5 -27 10 -30 7 -4 9 20 8 67 -3 118 21 153 49 72z m-4512 -122 c111
-59 230 -231 223 -319 -3 -35 -6 -38 -36 -41 -20 -2 -47 5 -68 17 -19 12 -38
21 -42 21 -4 0 -7 -63 -7 -140 0 -135 1 -140 20 -133 29 9 32 9 122 -22 80
-26 83 -28 77 -54 -10 -43 -38 -75 -95 -104 -50 -26 -61 -27 -154 -24 -99 3
-181 25 -231 61 -31 23 -12 27 67 15 85 -13 137 -7 171 21 l23 19 -22 21 c-17
15 -27 18 -41 11 -27 -15 -162 -10 -162 6 0 7 4 13 10 13 5 0 -3 21 -19 46
-28 44 -47 120 -53 219 l-3 40 -32 -33 c-18 -18 -38 -49 -44 -67 -19 -53 -37
-52 -62 3 -51 112 -6 351 81 428 28 24 66 31 77 14 7 -12 -32 -102 -74 -169
-31 -51 -46 -117 -29 -127 6 -4 26 12 45 35 19 22 40 41 48 41 7 0 20 -27 30
-62 25 -91 44 -128 66 -128 16 0 19 8 19 50 0 27 -9 73 -20 102 -20 52 -26
121 -14 152 9 23 34 20 65 -10 33 -32 99 -50 99 -27 0 24 -63 78 -107 91 -47
14 -68 35 -59 58 8 22 64 11 131 -24z m4125 9 c0 -18 -33 -44 -122 -95 -31
-19 -32 -20 -10 -24 12 -2 45 4 73 13 28 10 53 15 56 12 3 -3 0 -28 -6 -54
-14 -62 -32 -234 -25 -244 11 -19 35 7 49 55 17 59 50 116 66 116 6 0 25 -16
42 -35 17 -19 34 -35 39 -35 23 0 3 75 -47 175 -31 60 -53 115 -51 122 10 25
55 13 94 -24 57 -55 76 -125 76 -283 1 -104 -2 -131 -17 -153 -9 -15 -22 -27
-27 -27 -5 0 -23 27 -40 59 -29 58 -46 78 -56 68 -3 -3 -10 -38 -15 -77 -6
-50 -19 -92 -44 -139 -21 -40 -33 -74 -29 -84 7 -19 -6 -23 -23 -6 -8 8 -17 8
-33 -1 -13 -7 -42 -10 -68 -7 -52 6 -94 -9 -90 -32 2 -11 15 -16 39 -17 19 -1
47 -9 60 -18 21 -13 35 -14 75 -7 27 5 62 14 77 20 67 26 54 -2 -20 -44 -59
-32 -136 -55 -188 -55 -115 0 -275 88 -275 151 0 24 -6 24 -37 -1 -52 -40
-148 -61 -276 -59 -65 1 -120 -1 -123 -4 -3 -3 4 -11 16 -17 39 -21 60 -69 60
-142 0 -60 -3 -69 -26 -87 -31 -24 -96 -28 -113 -8 -38 47 -15 127 38 127 36
0 42 7 29 36 -15 32 -53 41 -87 21 -26 -15 -81 -108 -81 -138 0 -9 27 -42 60
-72 63 -59 134 -89 238 -102 35 -5 52 -11 52 -21 0 -49 -196 -44 -306 8 -45
21 -68 58 -99 161 -10 31 -19 57 -21 57 -1 0 -10 -7 -18 -16 -21 -20 -20 -69
1 -134 16 -50 16 -53 -2 -66 -10 -8 -39 -14 -64 -14 -50 0 -65 -7 -73 -30 -12
-34 10 -50 70 -50 71 0 374 28 396 36 9 3 23 3 32 0 15 -6 15 -8 -1 -26 -18
-19 -17 -20 6 -20 20 0 234 96 286 128 46 28 177 127 219 166 29 25 55 46 58
46 11 0 -7 -66 -29 -105 -92 -160 -277 -281 -560 -364 -182 -54 -296 -84 -375
-101 -124 -28 -227 -63 -375 -130 -114 -52 -275 -205 -352 -335 -70 -118 -87
-175 -88 -295 0 -118 15 -164 77 -234 51 -59 63 -39 26 41 -46 96 -49 186 -13
318 46 170 61 196 91 158 13 -17 15 -16 33 7 11 14 23 36 26 50 16 64 131 206
210 259 22 15 64 37 93 49 56 22 169 48 178 40 16 -17 -44 -72 -193 -177 -57
-40 -102 -151 -62 -151 6 0 46 33 88 73 105 101 143 127 164 116 44 -25 4 -84
-103 -151 -75 -47 -143 -125 -170 -195 -12 -32 -26 -68 -31 -81 -21 -54 -69
21 -69 108 1 77 16 138 51 191 34 54 35 59 10 59 -11 0 -31 -14 -46 -31 -49
-59 -67 -110 -81 -224 -8 -60 -16 -116 -19 -123 -3 -8 -16 -10 -43 -6 -32 5
-44 2 -68 -19 -26 -23 -29 -31 -29 -84 1 -134 86 -244 175 -227 43 9 90 58 90
95 0 16 -3 29 -7 29 -3 0 -21 -18 -40 -40 -44 -51 -75 -53 -103 -7 -24 38 -26
106 -6 146 17 33 54 51 104 51 119 -1 167 -123 103 -263 -32 -71 -56 -95 -127
-131 -74 -37 -149 -36 -218 4 -67 38 -78 50 -120 140 -40 85 -60 191 -51 265
33 256 175 473 412 634 83 56 270 129 433 169 145 35 243 64 255 74 7 7 -196
12 -485 13 -62 0 -65 1 -68 25 -1 14 8 43 20 64 34 59 103 92 251 121 26 5 27
7 27 78 0 56 6 84 26 127 34 74 55 94 125 120 61 23 74 38 39 47 -24 6 -24 5
0 45 11 18 37 42 57 54 l38 21 5 91 c4 82 8 94 32 118 50 50 168 41 198 -15
23 -43 0 -108 -44 -129 -20 -9 -29 -8 -47 6 -19 16 -20 22 -11 55 10 35 9 37
-14 37 -14 0 -30 -10 -40 -24 -8 -14 -23 -27 -32 -29 -15 -3 -14 -5 3 -12 11
-5 39 -30 63 -57 56 -61 129 -88 191 -69 38 11 101 55 101 70 0 4 -23 18 -50
30 -95 43 -100 93 -15 126 43 16 48 16 62 2 14 -14 14 -18 1 -39 -36 -55 7
-62 101 -18 70 34 91 33 91 -2 0 -38 -29 -120 -55 -160 -14 -21 -25 -40 -25
-43 0 -8 69 6 107 22 18 7 48 13 66 13 l35 0 4 133 c3 72 3 134 2 136 -2 2
-23 -7 -48 -19 -52 -25 -109 -24 -114 2 -5 27 61 168 111 238 38 52 60 71 110
97 75 37 147 45 147 14z m-3862 -129 c4 -26 -17 -37 -53 -28 -15 4 -25 14 -25
25 0 26 10 32 45 29 22 -2 31 -9 33 -26z m3535 16 c8 -23 -13 -48 -39 -48 -29
0 -42 24 -24 45 15 18 57 20 63 3z m-3110 -91 c56 -87 60 -106 17 -80 -23 13
-32 15 -42 5 -30 -30 -68 2 -68 59 0 25 27 89 37 89 4 0 29 -33 56 -73z m2699
32 c24 -47 9 -106 -28 -115 -14 -4 -30 -2 -36 4 -8 8 -19 7 -38 -3 -15 -8 -30
-12 -33 -9 -8 9 96 165 108 161 5 -2 18 -19 27 -38z m1149 -131 c-20 -88 -71
-179 -117 -213 -23 -16 -48 -44 -57 -60 -12 -25 -27 -34 -84 -53 -78 -25 -83
-26 -83 -13 0 5 36 30 79 55 93 54 116 82 126 156 10 71 28 106 84 157 56 51
69 44 52 -29z m-5013 13 c39 -37 61 -86 72 -161 5 -30 12 -63 16 -74 6 -17 5
-17 -22 -3 -60 31 -111 111 -130 204 -8 36 -12 69 -8 74 7 12 30 -1 72 -40z
m1215 -67 c63 -52 82 -106 64 -181 -8 -29 -6 -33 25 -49 44 -23 88 -65 88 -85
0 -9 -9 -19 -21 -22 -26 -7 -18 -23 17 -31 45 -12 98 -54 134 -107 31 -46 35
-60 40 -137 6 -97 3 -94 99 -112 96 -17 134 -41 170 -103 50 -87 56 -84 -144
-92 -265 -11 -394 -4 -484 28 -83 30 -107 45 -92 60 6 6 30 6 68 -1 74 -14
347 -35 393 -31 28 3 36 9 38 27 5 34 -15 52 -59 52 -54 0 -89 16 -89 40 0 11
7 47 17 80 13 47 14 65 5 85 -17 37 -29 31 -37 -17 -16 -95 -83 -176 -174
-206 -71 -25 -221 -8 -221 24 0 8 20 15 48 19 123 16 244 95 257 168 16 81
-24 157 -82 157 -33 0 -46 -8 -61 -36 -14 -26 -7 -34 29 -34 30 0 69 -40 69
-70 0 -32 -33 -61 -75 -67 -54 -7 -91 22 -100 77 -10 59 3 98 47 146 l41 44
-107 0 c-129 0 -178 10 -277 58 -83 39 -102 61 -137 155 -42 112 -29 136 53
97 33 -16 73 -32 88 -36 27 -6 28 -6 21 33 -7 47 10 66 59 65 42 -1 60 -26 53
-77 -6 -46 -43 -85 -82 -85 -52 0 -8 -51 67 -75 39 -13 55 -14 90 -5 73 20
139 70 154 118 10 35 -18 72 -55 72 l-31 0 16 -31 c15 -28 15 -33 0 -55 -18
-28 -26 -29 -65 -9 -27 14 -30 21 -30 61 0 113 89 159 173 88z m-576 -119 c7
-20 -2 -29 -21 -22 -9 4 -13 13 -10 22 8 19 23 19 31 0z m3701 -8 c2 -12 -3
-17 -17 -17 -12 0 -21 6 -21 13 0 31 32 34 38 4z m-4133 -120 l50 -28 -53 4
c-58 5 -102 35 -102 70 0 19 1 19 28 1 15 -10 50 -31 77 -47z m-164 17 c34
-17 45 -32 58 -79 14 -55 92 -158 176 -236 66 -61 119 -98 208 -144 40 -21 67
-59 67 -94 0 -30 20 -70 61 -126 28 -37 59 -62 116 -94 99 -55 143 -88 143
-107 0 -63 -334 178 -548 395 -98 99 -206 228 -249 296 -61 99 -95 162 -100
189 -6 26 -4 28 18 21 13 -4 36 -13 50 -21z m4923 7 c7 -10 -53 -128 -88 -176
-12 -16 -32 -47 -44 -69 -47 -80 -206 -257 -318 -351 -140 -118 -166 -139
-199 -160 -17 -11 -73 -48 -124 -82 -51 -35 -99 -63 -107 -63 -49 0 48 92 127
121 96 35 159 103 159 171 0 22 -1 22 -29 -8 -22 -23 -36 -30 -54 -27 -19 4
-27 0 -31 -15 -14 -44 -66 -102 -90 -102 -14 0 -28 5 -31 10 -12 19 -25 9 -66
-52 -62 -91 -67 -93 -89 -25 -6 21 -17 36 -23 34 -7 -2 -28 -33 -48 -68 -42
-74 -122 -159 -150 -159 -15 0 -19 7 -19 34 0 18 -7 39 -15 46 -12 10 -16 7
-26 -16 -28 -72 -52 -111 -78 -127 -39 -23 -50 -21 -62 10 -16 43 6 124 44
160 44 42 71 49 95 25 19 -19 20 -19 61 24 33 35 48 44 75 44 18 0 45 9 59 20
14 11 29 20 34 20 4 0 53 26 108 58 55 32 121 68 146 80 26 12 74 52 108 87
35 36 67 65 72 65 5 0 9 -19 9 -42 l0 -43 28 35 c40 51 113 119 147 137 17 9
65 43 109 76 93 71 159 157 189 247 21 61 25 65 62 77 51 15 53 15 59 4z
m-4693 -202 c35 -25 46 -56 27 -76 -13 -12 -21 -8 -61 37 -26 29 -47 57 -47
62 0 14 48 1 81 -23z m4468 9 c-40 -78 -82 -106 -109 -73 -19 23 -6 42 47 69
63 33 78 33 62 4z m-3847 -62 c-4 -56 8 -59 60 -16 53 44 85 54 114 35 35 -23
29 -50 -21 -104 -25 -26 -45 -53 -45 -60 0 -6 16 -11 38 -11 106 -1 63 -75
-50 -87 -92 -9 -219 40 -243 95 -5 12 -16 22 -23 22 -20 0 -72 29 -72 40 0 5
12 12 28 16 57 13 67 18 111 59 85 78 107 81 103 11z m3191 38 c18 -10 50 -32
71 -50 21 -19 59 -41 83 -50 23 -9 43 -20 43 -25 0 -12 -42 -39 -61 -39 -9 0
-19 -8 -21 -18 -7 -24 -68 -71 -115 -88 -78 -28 -193 -8 -232 40 -13 15 -13
19 0 27 8 5 31 9 52 9 44 0 43 3 -22 90 -33 44 -38 57 -30 73 9 17 18 19 57
13 25 -3 61 -15 79 -26 47 -27 56 -26 48 10 -6 27 -1 50 11 50 3 0 19 -7 37
-16z m-3632 -103 c37 -37 51 -71 29 -71 -41 0 -111 74 -95 100 11 18 27 11 66
-29z m4101 13 c-5 -27 -62 -84 -84 -84 -29 0 -21 26 21 71 40 42 69 48 63 13z
m-3812 -165 c30 -19 82 -43 115 -53 82 -24 123 -42 167 -78 96 -76 284 -144
463 -167 120 -16 231 -44 313 -80 37 -16 78 -32 91 -36 64 -19 218 -142 302
-240 71 -83 164 -245 185 -323 22 -82 29 -229 15 -304 -9 -46 -25 -82 -58
-132 -42 -62 -54 -72 -120 -102 -101 -47 -171 -47 -239 -1 -42 28 -51 40 -71
97 -30 89 -30 118 2 130 31 12 34 49 6 74 -39 35 18 116 72 102 36 -9 83 -51
112 -101 30 -50 26 -95 -12 -125 -23 -18 -28 -18 -53 -5 -15 8 -42 26 -59 41
l-31 26 0 -41 c0 -36 4 -44 33 -61 72 -44 163 -11 203 73 41 89 26 237 -25
237 -11 0 -23 -4 -26 -10 -3 -5 -17 -10 -31 -10 -32 0 -44 31 -44 113 0 121
-43 230 -106 272 -42 27 -45 7 -9 -63 62 -119 67 -218 14 -281 -24 -29 -30
-24 -61 54 -41 100 -112 189 -199 246 -102 67 -115 82 -101 114 6 14 17 25 23
25 18 0 107 -71 179 -144 96 -98 122 -89 65 24 -29 57 -70 95 -168 155 -76 46
-107 78 -88 89 15 10 132 -19 211 -52 99 -42 199 -140 260 -257 51 -98 67
-116 80 -95 14 23 34 -2 69 -91 65 -165 63 -297 -5 -399 -29 -42 -30 -60 -4
-60 21 0 57 49 93 129 33 74 30 203 -8 311 -54 154 -190 323 -335 414 -102 66
-291 141 -415 168 -91 19 -323 81 -483 129 -196 60 -362 173 -459 314 -98 142
-93 176 10 78 40 -37 97 -84 127 -104z m918 89 c19 -19 15 -48 -8 -48 -23 0
-35 22 -26 45 7 18 18 19 34 3z m1660 -20 c-4 -30 -48 -39 -48 -10 0 10 3 22
7 25 3 4 15 7 25 7 14 0 19 -6 16 -22z m-1328 -188 c85 -84 226 -253 286 -343
30 -45 80 -97 93 -97 16 0 14 11 -10 45 -11 17 -27 42 -35 58 -21 39 2 36 57
-8 61 -48 113 -49 180 0 27 19 52 35 55 35 12 0 -7 -55 -32 -92 -26 -41 -29
-48 -15 -48 9 0 107 121 175 215 16 22 37 47 46 55 9 8 35 40 57 70 84 113
253 254 253 210 0 -10 -99 -129 -280 -338 -156 -180 -175 -206 -241 -339 -52
-104 -64 -136 -78 -222 -13 -83 -19 -101 -33 -101 -11 0 -18 8 -18 20 0 31
-78 261 -103 302 -12 20 -38 63 -57 95 -58 98 -164 237 -310 408 -116 135
-150 179 -150 192 0 26 60 -18 160 -117z m-1256 -38 c27 -17 56 -32 64 -32 8
0 26 -9 41 -19 15 -11 54 -34 86 -52 102 -55 141 -86 176 -140 30 -48 54 -56
30 -10 -18 32 -13 51 12 51 34 0 62 -24 107 -91 38 -56 71 -80 55 -41 -32 79
-31 88 9 78 68 -17 105 -216 41 -216 -18 0 -91 74 -111 112 -19 36 -33 36 -40
-2 -4 -16 -12 -30 -18 -30 -31 0 -120 91 -179 183 -23 35 -34 34 -42 -4 -14
-64 -61 -42 -100 47 -27 61 -40 71 -64 50 -30 -28 -48 -18 -90 49 -41 64 -54
75 -66 54 -19 -30 -85 100 -71 138 5 13 17 5 59 -38 29 -30 74 -69 101 -87z
m1151 -147 c31 -7 95 -47 158 -100 47 -39 57 -55 36 -55 -18 0 -286 128 -294
140 -8 13 27 30 53 24 12 -2 33 -6 47 -9z m1275 -7 c-1 -15 -34 -33 -185 -100
-60 -26 -114 -47 -120 -45 -24 9 121 121 185 143 47 17 120 18 120 2z m-1658
-149 c74 -38 96 -99 59 -168 -17 -32 -17 -36 1 -99 21 -76 23 -134 7 -183 -24
-69 -61 -89 -81 -41 -42 105 -63 138 -130 205 -40 40 -88 79 -105 86 -35 14
-45 41 -15 41 22 0 118 -63 170 -111 21 -20 52 -58 68 -83 16 -25 32 -46 37
-46 21 0 0 103 -38 185 -26 54 -65 179 -65 206 0 45 16 46 92 8z m2032 15 c11
-29 -23 -139 -73 -234 -25 -48 -43 -121 -39 -155 l3 -29 27 41 c37 56 120 133
173 160 24 13 46 27 50 33 9 14 35 12 35 -3 0 -7 -14 -21 -31 -31 -73 -43
-196 -192 -229 -276 -7 -19 -14 -36 -15 -38 -8 -11 -39 17 -55 49 -26 51 -26
125 2 204 l21 63 -21 27 c-35 45 -30 94 16 137 34 34 92 67 118 68 7 0 15 -7
18 -16z m-2488 -70 l39 -37 -30 7 c-40 10 -75 33 -75 51 0 25 26 17 66 -21z
m2914 22 c0 -15 -32 -39 -69 -51 l-24 -7 28 36 c27 36 65 49 65 22z m-690
-342 c0 -22 2 -24 15 -14 12 10 15 7 21 -17 22 -98 28 -110 75 -156 36 -35 49
-55 49 -76 0 -43 -39 -93 -91 -114 -60 -25 -114 -11 -174 44 -70 65 -80 127
-34 214 21 40 116 145 131 145 4 0 8 -12 8 -26z m-1524 -33 c43 -41 54 -60 69
-115 15 -57 16 -73 6 -109 -33 -109 -135 -167 -219 -123 -27 15 -68 62 -91
104 -11 21 -8 28 38 77 43 48 91 140 91 176 0 6 5 7 11 4 6 -4 13 2 16 14 8
31 23 26 79 -28z m759 -449 c4 -26 15 -61 26 -78 24 -40 24 -75 -1 -107 -11
-14 -27 -42 -35 -61 -9 -20 -21 -36 -28 -36 -15 0 -77 130 -77 161 0 11 14 45
30 76 17 31 30 68 30 84 0 31 20 44 36 22 7 -7 15 -35 19 -61z m-142 -214 c25
-20 47 -95 54 -184 7 -91 -7 -119 -28 -57 -17 55 -54 126 -83 161 -32 37 -33
56 -4 76 27 19 39 20 61 4z m282 -14 c19 -14 19 -16 3 -42 -37 -61 -96 -171
-103 -191 -9 -28 -21 -27 -29 4 -7 27 8 138 25 182 23 60 63 79 104 47z m-149
-349 c9 -48 -2 -85 -25 -85 -30 0 -40 45 -21 94 14 38 38 33 46 -9z"/>
<path d="M2597 8895 c-112 -49 -122 -55 -81 -55 42 0 207 81 188 92 -5 3 -53
-14 -107 -37z"/>
<path d="M6846 8931 c30 -28 232 -116 243 -106 9 10 -36 35 -134 75 -100 40
-128 48 -109 31z"/>
<path d="M7106 8802 c-5 -8 183 -86 191 -78 9 8 -55 45 -115 65 -70 24 -69 24
-76 13z"/>
<path d="M6200 9040 c0 -5 5 -10 10 -10 6 0 10 5 10 10 0 6 -4 10 -10 10 -5 0
-10 -4 -10 -10z"/>
<path d="M6725 7500 c-10 -16 16 -43 28 -31 11 11 2 41 -12 41 -5 0 -13 -5
-16 -10z"/>
<path d="M5985 6410 c3 -5 15 -10 26 -10 10 0 19 5 19 10 0 6 -12 10 -26 10
-14 0 -23 -4 -19 -10z"/>
<path d="M3280 6410 c0 -5 6 -10 14 -10 8 0 18 5 21 10 3 6 -3 10 -14 10 -12
0 -21 -4 -21 -10z"/>
<path d="M5557 5053 c-3 -21 -9 -53 -12 -70 -5 -20 -4 -33 2 -33 14 0 37 120
25 132 -6 6 -11 -5 -15 -29z"/>
<path d="M3992 5050 c0 -14 2 -19 5 -12 2 6 2 18 0 25 -3 6 -5 1 -5 -13z"/>
<path d="M4002 4990 c0 -19 2 -27 5 -17 2 9 2 25 0 35 -3 9 -5 1 -5 -18z"/>
<path d="M10152 10259 c-90 -5 -252 -17 -360 -28 -330 -33 -374 -35 -775 -36
l-389 0 -19 -24 c-12 -15 -19 -39 -19 -67 0 -49 21 -70 80 -80 19 -3 69 -16
110 -29 41 -14 101 -29 133 -35 46 -9 62 -18 82 -44 l25 -33 -2 -1516 c-3
-1392 -4 -1518 -19 -1533 -17 -16 -120 -48 -279 -85 -99 -23 -130 -46 -130
-96 0 -92 24 -98 317 -84 131 7 250 14 265 17 34 7 306 -10 708 -43 387 -31
529 -28 761 16 186 36 411 111 492 164 15 9 31 17 36 17 15 0 199 127 268 185
109 93 233 239 310 364 62 102 145 293 173 400 9 36 24 93 33 126 37 140 62
382 61 595 -2 445 -94 827 -267 1106 -57 91 -73 113 -143 195 -90 105 -158
165 -324 286 -125 91 -324 175 -529 223 -174 41 -338 51 -599 39z m310 -290
c378 -41 705 -277 902 -653 20 -38 36 -73 36 -77 0 -5 11 -33 25 -63 14 -30
25 -62 25 -70 0 -8 11 -50 25 -93 14 -43 32 -134 40 -203 8 -69 20 -152 25
-185 5 -33 10 -143 10 -245 0 -208 -35 -523 -68 -620 -10 -30 -22 -73 -26 -95
-18 -95 -122 -302 -218 -435 -84 -116 -236 -248 -358 -313 -25 -13 -54 -29
-65 -35 -53 -30 -162 -65 -275 -89 -106 -22 -150 -26 -285 -26 -250 0 -663 52
-793 99 -31 12 -44 23 -49 42 -3 14 -1 143 6 287 40 885 40 1468 0 2357 -12
262 -9 305 19 332 16 14 113 35 307 67 161 26 553 36 717 18z"/>
<path d="M27145 9130 c-237 -28 -428 -36 -635 -28 -159 7 -191 6 -229 -8 -49
-19 -72 -58 -64 -112 6 -40 10 -42 153 -82 63 -18 122 -39 130 -47 13 -12 15
-137 14 -1017 -2 -750 -5 -1009 -14 -1026 -15 -27 -56 -45 -140 -60 -116 -20
-140 -37 -140 -100 0 -85 31 -94 291 -79 222 12 311 9 674 -23 278 -24 406
-20 595 16 352 67 628 240 793 499 38 60 117 219 117 236 0 6 9 37 21 69 30
83 59 276 66 442 5 122 2 170 -17 295 -53 355 -203 622 -440 784 -62 43 -269
151 -289 151 -5 0 -42 11 -83 25 -206 71 -531 97 -803 65z m360 -240 c206 -18
260 -32 405 -103 187 -92 320 -256 398 -492 39 -118 68 -389 58 -543 -10 -152
-33 -318 -50 -350 -8 -15 -19 -47 -26 -72 -17 -62 -70 -164 -123 -236 -119
-161 -264 -257 -469 -310 -99 -26 -110 -26 -308 -21 -220 5 -437 30 -484 54
l-29 15 6 142 c35 743 37 892 22 1239 -8 188 -18 394 -21 457 -6 96 -4 121 10
147 22 43 52 50 276 67 102 7 192 14 200 15 8 0 69 -4 135 -9z"/>
<path d="M12890 9103 c-30 -6 -57 -29 -76 -65 -31 -60 -9 -97 66 -113 70 -15
215 -58 228 -68 9 -7 12 -221 10 -1030 l-3 -1020 -25 -18 c-14 -11 -71 -28
-129 -39 -137 -26 -175 -58 -147 -124 29 -69 39 -71 286 -57 174 10 266 10
439 0 201 -11 221 -11 245 4 51 34 43 134 -12 156 -15 5 -60 15 -100 21 -103
15 -140 32 -157 73 -22 53 -17 2009 5 2031 15 15 151 58 225 71 53 10 75 31
75 72 0 76 -38 108 -125 106 -237 -3 -721 -3 -747 0 -18 3 -44 3 -58 0z"/>
<path d="M14587 9098 c-58 -8 -61 -10 -81 -52 -26 -56 -8 -108 42 -121 15 -3
58 -18 96 -33 81 -32 116 -71 141 -160 9 -32 23 -67 30 -79 8 -11 20 -43 26
-70 7 -26 19 -61 27 -77 8 -17 25 -59 38 -95 12 -36 39 -109 59 -161 20 -52
43 -117 52 -145 8 -27 21 -59 28 -71 8 -12 21 -48 31 -80 9 -32 20 -63 24 -69
8 -10 49 -120 77 -205 8 -25 21 -61 30 -80 9 -19 26 -64 38 -100 13 -36 51
-139 85 -230 33 -91 72 -194 85 -230 13 -36 40 -108 60 -160 20 -52 46 -125
59 -161 12 -36 34 -87 49 -112 33 -56 51 -61 206 -55 90 3 113 7 130 22 12 11
21 23 21 27 0 5 11 32 24 61 13 29 27 66 30 83 4 16 17 50 28 75 12 25 27 65
34 90 13 45 53 157 113 320 18 47 43 117 56 155 13 39 38 108 55 155 17 47 42
117 55 155 13 39 38 108 56 155 17 47 42 117 55 155 14 39 32 86 41 105 9 19
22 55 29 80 7 25 29 88 49 140 20 52 61 165 91 250 101 283 97 274 126 288 15
7 66 26 115 44 48 17 94 35 101 40 29 24 -4 114 -50 139 -13 7 -86 10 -202 9
-99 -2 -266 -2 -371 -1 l-190 2 -32 -35 c-59 -64 -41 -123 42 -141 75 -17 193
-56 203 -67 13 -17 -2 -102 -30 -166 -11 -26 -28 -74 -38 -107 -28 -93 -49
-155 -73 -215 -11 -30 -29 -82 -38 -115 -10 -33 -34 -105 -54 -160 -20 -55
-42 -120 -49 -145 -7 -25 -46 -139 -85 -255 -40 -115 -83 -244 -96 -285 -69
-218 -122 -350 -142 -350 -13 0 -67 112 -88 184 -8 28 -30 96 -50 151 -44 122
-149 428 -175 510 -40 123 -80 236 -91 256 -6 12 -19 49 -29 83 -11 33 -49
147 -85 251 -84 242 -110 342 -94 361 12 14 157 64 187 64 9 0 32 9 50 20 27
17 32 26 32 58 0 27 -8 47 -27 70 l-28 33 -381 2 c-210 1 -402 -1 -427 -5z"/>
<path d="M18343 9093 c-27 -14 -37 -28 -57 -87 -13 -39 -38 -107 -56 -151 -17
-44 -40 -106 -51 -137 -10 -32 -25 -71 -34 -88 -9 -17 -24 -56 -34 -88 -11
-31 -34 -93 -51 -137 -18 -44 -45 -115 -61 -157 -16 -43 -42 -113 -58 -155
-16 -43 -41 -109 -56 -148 -15 -38 -38 -101 -51 -139 -13 -38 -28 -74 -33 -80
-5 -6 -16 -34 -24 -62 -8 -28 -22 -66 -31 -83 -9 -17 -25 -57 -36 -89 -23 -71
-67 -190 -80 -217 -12 -26 -56 -141 -86 -229 -13 -38 -28 -74 -33 -80 -5 -6
-17 -37 -27 -68 -28 -91 -69 -123 -184 -149 -52 -11 -105 -27 -117 -35 -46
-30 -42 -99 8 -134 28 -21 40 -22 172 -19 206 5 310 5 514 -1 172 -5 183 -4
209 16 39 29 50 77 26 117 -16 28 -26 33 -87 45 -169 30 -175 32 -195 64 -16
27 -17 34 -3 86 8 31 23 73 34 94 10 20 19 42 19 48 0 6 13 46 29 88 16 42 37
99 46 126 24 66 43 72 255 80 96 4 279 14 405 22 127 7 245 14 262 14 46 0 87
-42 111 -115 11 -33 34 -98 52 -145 17 -47 42 -119 56 -160 15 -41 30 -83 35
-92 7 -13 2 -25 -18 -48 -25 -28 -39 -33 -138 -50 -133 -22 -139 -25 -154 -56
-17 -39 -13 -73 13 -99 38 -38 79 -44 263 -35 92 5 278 6 413 3 279 -7 311 -2
329 49 16 44 14 53 -14 86 -21 25 -40 34 -104 47 -138 30 -177 67 -230 215
-11 30 -34 91 -51 135 -18 44 -45 114 -60 155 -16 41 -43 111 -60 155 -18 44
-41 105 -51 135 -11 30 -26 69 -33 85 -8 17 -17 41 -21 55 -4 14 -16 43 -26
65 -19 41 -52 129 -93 246 -13 36 -29 74 -35 85 -6 10 -20 44 -30 74 -22 63
-67 182 -106 285 -15 39 -40 104 -55 145 -15 41 -34 91 -42 110 -32 73 -61
147 -77 200 -10 30 -23 64 -29 75 -7 11 -20 43 -31 70 -16 43 -24 52 -57 62
-60 18 -252 15 -291 -4z m157 -503 c6 -10 19 -45 30 -77 10 -32 33 -96 50
-143 17 -47 42 -116 55 -155 13 -38 38 -108 55 -155 18 -47 41 -112 52 -145
11 -33 27 -76 35 -95 28 -62 62 -182 56 -196 -14 -37 -48 -41 -381 -36 -283 4
-325 6 -343 21 l-21 17 26 79 c26 82 58 175 121 350 20 55 46 132 59 170 14
39 38 108 56 155 17 47 40 112 50 144 11 33 22 66 24 73 8 21 64 16 76 -7z"/>
<path d="M20143 9101 c-95 -16 -99 -35 -79 -339 10 -136 22 -262 28 -280 20
-64 90 -78 166 -32 36 22 39 33 76 233 15 76 31 148 37 159 11 20 17 20 266
16 l255 -4 24 -27 24 -28 0 -981 c0 -900 -1 -983 -17 -1000 -20 -23 -120 -53
-241 -72 -52 -8 -104 -21 -117 -30 -47 -31 -39 -98 17 -139 26 -20 33 -20 298
-8 216 10 321 10 517 0 231 -12 247 -11 279 6 21 11 37 30 44 51 23 70 -8 99
-132 119 -124 21 -225 49 -248 70 -20 18 -20 25 -20 1004 0 957 1 987 20 1011
l19 25 242 3 c132 2 251 1 264 -2 30 -8 39 -35 70 -206 15 -80 33 -155 41
-167 20 -32 57 -54 102 -60 31 -4 44 0 66 18 33 29 39 69 57 366 13 234 9 265
-40 285 -17 8 -138 10 -366 7 -394 -5 -1278 -2 -1475 5 -74 2 -154 1 -177 -3z"/>
<path d="M22955 9106 c-5 -3 -22 -7 -36 -10 -32 -7 -69 -64 -69 -105 0 -15 8
-35 18 -45 18 -16 92 -43 177 -65 22 -6 47 -15 55 -21 13 -8 16 -115 21 -827
l5 -818 31 -110 c56 -205 146 -333 308 -436 188 -120 495 -175 832 -152 327
24 557 132 720 340 59 75 93 143 125 251 l32 107 6 815 c3 448 9 821 13 828 5
6 13 12 18 12 14 0 171 62 187 73 6 5 12 29 12 54 0 36 -6 50 -29 73 l-29 29
-310 0 c-171 0 -321 3 -334 5 -12 3 -48 2 -78 -2 -47 -6 -57 -12 -77 -41 -27
-41 -30 -92 -5 -114 9 -9 49 -23 87 -31 100 -22 154 -36 202 -53 40 -14 42
-16 48 -66 3 -29 5 -385 3 -792 l-4 -740 -27 -79 c-98 -280 -326 -420 -687
-419 -381 1 -620 173 -660 473 -13 100 -10 1575 4 1602 4 10 24 22 45 28 20 5
72 19 116 30 187 49 170 40 173 91 3 39 -1 51 -27 77 l-29 32 -370 0 c-203 0
-389 2 -413 5 -24 2 -48 3 -54 1z"/>
<path d="M29597 9103 c-34 -5 -87 -74 -87 -113 0 -45 13 -50 237 -106 34 -8
68 -22 75 -31 18 -22 25 -1993 7 -2035 -14 -33 -59 -52 -174 -72 -120 -21
-157 -55 -130 -120 29 -69 36 -70 298 -57 234 13 490 11 1171 -10 420 -12 447
-8 474 81 6 19 16 133 23 252 10 170 10 227 0 258 l-12 40 -54 0 c-45 0 -60
-5 -96 -32 -23 -18 -46 -44 -50 -58 -46 -160 -85 -264 -105 -276 -30 -20 -946
-16 -966 4 -15 15 -14 71 6 417 9 143 16 289 17 325 0 36 5 81 12 100 15 44
20 45 362 60 231 10 319 16 513 36 74 8 92 28 92 103 0 43 -5 65 -19 82 l-19
24 -449 5 c-246 3 -449 7 -450 8 -28 25 -34 64 -48 318 -9 148 -19 319 -23
379 -7 107 -7 111 16 132 32 30 51 31 475 38 326 5 371 4 401 -10 46 -22 56
-55 56 -184 0 -117 8 -139 60 -166 34 -17 103 -20 131 -4 27 14 36 43 49 146
6 49 18 120 26 158 42 195 38 275 -14 298 -20 8 -175 10 -562 7 -698 -6 -830
-6 -1040 1 -96 3 -188 4 -203 2z"/>
</g>
</svg>
